<svg width="24" height="24" viewBox="0 0 24 24" fill="none" xmlns="http://www.w3.org/2000/svg">
<path d="M4.12169 18.2749H6.13228V19.8246C6.13228 21.9271 7.17989 23 9.25397 23H19.8783C21.9418 23 23 21.9163 23 19.8246V8.88966C23 6.79803 21.9418 5.72512 19.8783 5.72512H17.8677V4.16453C17.8677 2.08374 16.8095 1 14.746 1H4.12169C2.04762 1 1 2.06207 1 4.16453V15.1103C1 17.202 2.04762 18.2749 4.12169 18.2749ZM4.14286 16.931C2.95767 16.931 2.31217 16.2916 2.31217 15.0345V4.24039C2.31217 2.98325 2.95767 2.34384 4.14286 2.34384H14.7249C15.8889 2.34384 16.5556 2.98325 16.5556 4.24039V5.72512H9.25397C7.17989 5.72512 6.13228 6.78719 6.13228 8.88966V16.931H4.14286ZM9.27513 21.6562C8.08995 21.6562 7.44444 21.0059 7.44444 19.7596V8.95468C7.44444 7.70837 8.08995 7.05813 9.27513 7.05813H19.8571C21.0212 7.05813 21.6878 7.70837 21.6878 8.95468V19.7596C21.6878 21.0059 21.0212 21.6562 19.8571 21.6562H9.27513Z" fill="#2E7CF6"/>
</svg>
