<svg width="24" height="24" viewBox="0 0 24 24" fill="none" xmlns="http://www.w3.org/2000/svg">
<g clip-path="url(#clip0_187_54038)">
<path d="M12 4.02343C11.3352 3.11821 9.05263 2 6.36011 2C3.13573 2 0.432133 3.58679 0 4.88605V21.0948C0 21.7338 0.432133 22 0.930748 22C1.32964 22 1.56233 21.8829 1.79501 21.7018C2.5374 21.0202 3.93352 20.1896 6.36011 20.1896C8.83102 20.1896 10.3712 21.0309 10.9806 21.6486C11.2133 21.8403 11.4903 22 12 22C12.4986 22 12.7756 21.819 13.0194 21.6486C13.662 21.0522 15.169 20.1896 17.6399 20.1896C20.0665 20.1896 21.4958 20.9989 22.205 21.7018C22.4377 21.8829 22.6704 22 23.0693 22C23.5679 22 24 21.7338 24 21.0948V4.88605C23.5679 3.58679 20.8643 2 17.6399 2C14.9474 2 12.6648 3.11821 12 4.02343ZM1.4626 5.31203C1.62881 4.64111 3.59003 3.3312 6.36011 3.3312C9.14127 3.3312 11.1136 4.65176 11.2687 5.31203V20.3067C10.1496 19.3908 8.34349 18.8797 6.36011 18.8797C4.36565 18.8797 2.55956 19.4015 1.4626 20.328V5.31203ZM22.5374 5.31203V20.328C21.4294 19.4015 19.6343 18.8797 17.6399 18.8797C15.6565 18.8797 13.8504 19.3908 12.7313 20.3067V5.31203C12.8864 4.65176 14.8587 3.3312 17.6399 3.3312C20.41 3.3312 22.3601 4.64111 22.5374 5.31203Z" fill="#2E7CF6"/>
</g>
<defs>
<clipPath id="clip0_187_54038">
<rect width="24" height="24" fill="white"/>
</clipPath>
</defs>
</svg>
