<svg width="24" height="24" viewBox="0 0 24 24" fill="none" xmlns="http://www.w3.org/2000/svg">
<path d="M11.6695 10.8161C11.8959 10.8161 12.0679 10.7455 12.1947 10.6131L15.9253 6.95959C16.0883 6.80957 16.1517 6.63307 16.1517 6.4301C16.1517 6.23595 16.0702 6.0418 15.9253 5.9006L12.1947 2.2118C12.0679 2.0706 11.8868 2 11.6695 2C11.262 2 10.9542 2.3177 10.9542 2.72364C10.9542 2.90896 11.0266 3.08546 11.1534 3.22666L13.571 5.53878C13.0549 5.45053 12.5297 5.39758 12.0045 5.39758C7.56763 5.39758 4 8.86577 4 13.19C4 17.523 7.56763 21 12.0045 21C16.4414 21 20 17.523 20 13.19C20 12.7664 19.6921 12.4575 19.2484 12.4575C18.8229 12.4575 18.5422 12.7664 18.5422 13.19C18.5422 16.7376 15.6355 19.5792 12.0045 19.5792C8.37351 19.5792 5.45784 16.7376 5.45784 13.19C5.45784 9.65118 8.37351 6.81839 12.0045 6.81839C12.6927 6.81839 13.3265 6.87134 13.8698 6.98607L11.1624 9.60706C11.0266 9.74826 10.9542 9.92476 10.9542 10.1101C10.9542 10.516 11.262 10.8161 11.6695 10.8161Z" fill="black"/>
</svg>
