<svg width="24" height="24" viewBox="0 0 24 24" fill="none" xmlns="http://www.w3.org/2000/svg">
<path d="M12.0052 15.6906C12.3464 15.6906 12.6358 15.3993 12.6358 15.0432V3.42086L12.5945 1.85611L13.5146 2.84892L15.2723 4.75899C15.386 4.88849 15.5514 4.95324 15.7065 4.95324C16.027 4.95324 16.2855 4.70504 16.2855 4.3705C16.2855 4.18705 16.2131 4.05755 16.0994 3.92806L12.4601 0.215827C12.305 0.0539568 12.1706 0 12.0052 0C11.8397 0 11.7053 0.0539568 11.5503 0.215827L7.91097 3.92806C7.7869 4.05755 7.71453 4.18705 7.71453 4.3705C7.71453 4.70504 7.96267 4.95324 8.29351 4.95324C8.44859 4.95324 8.62435 4.88849 8.73808 4.75899L10.4957 2.84892L11.4159 1.85611L11.3745 3.42086V15.0432C11.3745 15.3993 11.664 15.6906 12.0052 15.6906ZM6.04997 24H17.95C19.9661 24 21 22.9209 21 20.8489V9.82014C21 7.73741 19.9661 6.65827 17.95 6.65827H15.0034V7.9964H17.919C19.0666 7.9964 19.718 8.64388 19.718 9.88489V20.7734C19.718 22.0252 19.0666 22.6619 17.919 22.6619H6.07065C4.91269 22.6619 4.28202 22.0252 4.28202 20.7734V9.88489C4.28202 8.64388 4.91269 7.9964 6.07065 7.9964H9.00689V6.65827H6.04997C4.03389 6.65827 3 7.72662 3 9.82014V20.8489C3 22.9317 4.03389 24 6.04997 24Z" fill="#2E7CF6"/>
</svg>
