<svg width="24" height="24" viewBox="0 0 24 24" fill="none" xmlns="http://www.w3.org/2000/svg">
<path d="M3.52385 17.9619C3.78577 17.9619 3.93711 17.8477 4.03605 17.5867L4.77526 15.6397H8.09879L8.84382 17.5867C8.94276 17.8477 9.0941 17.9619 9.35602 17.9619C9.65869 17.9619 9.87987 17.7825 9.87987 17.5323C9.87987 17.4616 9.86241 17.38 9.81585 17.2604L7.1093 10.4296C6.98125 10.1088 6.77171 9.96193 6.45158 9.96193C6.10817 9.96193 5.89281 10.1142 5.76475 10.4351L3.06403 17.2604C3.01746 17.38 3 17.4616 3 17.5323C3 17.7825 3.22118 17.9619 3.52385 17.9619ZM5.07793 14.8076L6.42247 11.2291H6.4574L7.80194 14.8076H5.07793Z" fill="#202124"/>
<path d="M11.466 18C11.8589 18 12.0859 17.8287 12.2343 17.4371L13.3431 14.5167H18.3284L19.4459 17.4371C19.5943 17.8287 19.8213 18 20.2142 18C20.6682 18 21 17.7308 21 17.3555C21 17.2495 20.9738 17.1271 20.904 16.9477L16.8441 6.70156C16.6521 6.22026 16.3378 6 15.8576 6C15.3424 6 15.0194 6.22842 14.8273 6.70972L10.7762 16.9477C10.7064 17.1271 10.6802 17.2495 10.6802 17.3555C10.6802 17.7308 11.012 18 11.466 18ZM13.7971 13.2685L15.8139 7.90075H15.8663L17.8831 13.2685H13.7971Z" fill="#202124"/>
</svg>
