<svg width="16" height="16" viewBox="0 0 16 16" fill="none" xmlns="http://www.w3.org/2000/svg">
<path d="M5.29341 15H11.7066C12.5756 15 13 14.5736 13 13.6407V8.74987C13 7.9103 12.6497 7.47719 11.9289 7.4039V5.72476C11.9289 3.21271 10.265 2 8.5 2C6.73503 2 5.07111 3.21271 5.07111 5.72476V7.43721C4.41093 7.53716 4 7.96361 4 8.74987V13.6407C4 14.5736 4.4244 15 5.29341 15ZM6.15569 5.58483C6.15569 3.91235 7.24027 3.02614 8.5 3.02614C9.75973 3.02614 10.8443 3.91235 10.8443 5.58483V7.39723L6.15569 7.4039V5.58483Z" fill="#676769"/>
</svg>
