<svg width="24" height="24" viewBox="0 0 24 24" fill="none" xmlns="http://www.w3.org/2000/svg">
<path d="M17 12.0054C17 11.7892 16.9255 11.6054 16.766 11.4541L8.26596 3.21622C8.11702 3.07568 7.94681 3 7.73404 3C7.32979 3 7 3.32432 7 3.74595C7 3.95135 7.08511 4.13514 7.21277 4.27568L15.2021 12.0054L7.21277 19.7351C7.08511 19.8649 7 20.0486 7 20.2541C7 20.6865 7.32979 21 7.73404 21C7.94681 21 8.11702 20.9243 8.26596 20.7838L16.766 12.5568C16.9255 12.4054 17 12.2216 17 12.0054Z" fill="#2E7CF6"/>
</svg>
