<svg width="42" height="42" viewBox="0 0 42 42" fill="none" xmlns="http://www.w3.org/2000/svg">
<path fill-rule="evenodd" clip-rule="evenodd" d="M25.2585 1H12.9415C11.4121 0.999979 10.1498 0.99996 9.12153 1.08236C8.05355 1.16795 7.07181 1.35164 6.14968 1.8125C4.71964 2.52719 3.55699 3.66759 2.82835 5.07026C2.3585 5.97475 2.17123 6.93769 2.08397 7.98524C1.99996 8.99382 1.99998 10.232 2 11.7321V31.2679C1.99998 32.768 1.99996 34.0062 2.08397 35.0148C2.17123 36.0623 2.3585 37.0253 2.82835 37.9297C3.55699 39.3324 4.71964 40.4728 6.14968 41.1875C7.07181 41.6484 8.05355 41.8321 9.12153 41.9176C10.1498 42 11.4121 42 12.9415 42H21.028C21.084 42 21.112 42 21.1284 41.9994C21.9429 41.9717 22.346 41.017 21.7901 40.4325C21.7789 40.4207 21.7591 40.4013 21.7195 40.3625C19.4935 38.1791 19.4935 34.6391 21.7195 32.4557C23.8681 30.3482 27.3053 30.275 29.5435 32.236L34.0695 27.7966C34.4235 27.4493 34.8126 27.1573 35.2255 26.9205C35.6476 26.6784 35.8587 26.5573 35.9584 26.4479C36.0629 26.3332 36.1058 26.2599 36.154 26.1135C36.2 25.9738 36.2 25.79 36.2 25.4224V11.7321C36.2 10.2319 36.2 8.99382 36.116 7.98524C36.0288 6.93769 35.8415 5.97475 35.3716 5.07026C34.643 3.66759 33.4804 2.52719 32.0503 1.8125C31.1282 1.35164 30.1465 1.16795 29.0785 1.08236C28.0502 0.99996 26.7879 0.999979 25.2585 1ZM11.5 15.9091C10.4507 15.9091 9.6 16.7435 9.6 17.7727C9.6 18.802 10.4507 19.6364 11.5 19.6364H22.9C23.9493 19.6364 24.8 18.802 24.8 17.7727C24.8 16.7435 23.9493 15.9091 22.9 15.9091H11.5ZM9.6 25.2273C9.6 24.198 10.4507 23.3636 11.5 23.3636H15.3C16.3493 23.3636 17.2 24.198 17.2 25.2273C17.2 26.2565 16.3493 27.0909 15.3 27.0909H11.5C10.4507 27.0909 9.6 26.2565 9.6 25.2273ZM11.5 8.45455C10.4507 8.45455 9.6 9.28893 9.6 10.3182C9.6 11.3474 10.4507 12.1818 11.5 12.1818H26.7C27.7493 12.1818 28.6 11.3474 28.6 10.3182C28.6 9.28893 27.7493 8.45455 26.7 8.45455H11.5Z" fill="#80BBFF"/>
<path d="M39.4435 33.0678C40.1855 32.34 40.1855 31.16 39.4435 30.4322C38.7015 29.7044 37.4985 29.7044 36.7565 30.4322L29.55 37.5008L27.0935 35.0913C26.3515 34.3635 25.1485 34.3635 24.4065 35.0913C23.6645 35.8191 23.6645 36.9991 24.4065 37.7269L28.2065 41.4542C28.9485 42.1819 30.1515 42.1819 30.8935 41.4542L39.4435 33.0678Z" fill="#80BBFF"/>
</svg>
