<svg preserveAspectRatio="none" width="100%" height="100%" overflow="visible" style="display: block;" viewBox="0 0 285 58" fill="none" xmlns="http://www.w3.org/2000/svg">
<g id="Vector">
<path d="M57.9067 29C57.9067 45.0163 44.9438 58 28.9533 58C12.9629 58 0 45.0163 0 29C0 12.9837 12.9629 0 28.9533 0C44.9438 0 57.9067 12.9837 57.9067 29Z" fill="url(#paint0_linear_651_31178)"/>
<path d="M32.1691 12.7317C35.2552 12.7317 37.8751 14.6055 38.927 17.2671C33.4335 18.6299 29.4003 23.5034 29.4003 29.3537C29.4003 33.7114 31.6386 37.5265 35.0508 39.753L34.5424 43.3784C34.2787 44.8718 33.0262 45.9756 31.5099 45.9756C29.9936 45.9756 28.6751 44.9367 28.4773 43.4434L27.0929 35.5869C26.8951 34.3532 25.9063 33.5091 24.6537 33.5091C23.467 33.5091 22.4122 34.3532 22.2145 35.5869L20.896 43.4434C20.6323 44.9367 19.3138 45.9756 17.8634 45.9756C16.2812 45.9756 15.0287 44.8718 14.765 43.3784L13.3805 33.5741C13.1828 32.1456 12.5894 30.847 11.7324 29.7432L11.6665 29.6134C10.5458 28.12 9.88651 26.237 9.88651 24.3541V19.874C9.88651 15.9133 13.1168 12.7317 17.1382 12.7317C17.9293 12.7317 18.7204 12.8616 19.4456 13.1213L24.6537 14.8095L29.8618 13.1213C30.5869 12.8616 31.378 12.7317 32.1691 12.7317Z" fill="white"/>
<path fill-rule="evenodd" clip-rule="evenodd" d="M42.0579 20.0038C47.3319 20.0038 51.5511 24.1593 51.5511 29.3537C51.5511 34.548 47.3319 38.7035 42.0579 38.7035C36.7839 38.7035 32.5647 34.548 32.5647 29.3537C32.5647 24.1593 36.7839 20.0038 42.0579 20.0038ZM45.8156 25.393C45.3541 25.0683 44.6949 25.1982 44.3652 25.6527L40.8712 30.3925L39.0913 28.6394C38.6957 28.2499 38.0365 28.2499 37.6409 28.6394C37.1794 29.029 37.1794 29.6783 37.6409 30.0679L40.2779 32.6651C40.4757 32.9248 40.8053 32.9897 41.069 32.9897C41.3986 32.9897 41.6623 32.7949 41.8601 32.5352L46.0793 26.8214C46.4089 26.3669 46.343 25.7176 45.8156 25.393Z" fill="#80BBFF"/>
<path d="M67.8253 12.3459H76.3957L85.4477 34.4656H85.8328L94.8848 12.3459H103.455V45.2683H96.7144V23.8398H96.4416L87.9353 45.1075H83.3452L74.8389 23.7594H74.5661V45.2683H67.8253V12.3459Z" fill="var(--fill-0, #0069DC)"/>
<path d="M106.261 12.3459H114.045L121.54 26.5244H121.861L129.356 12.3459H137.14L125.151 33.6297V45.2683H118.25V33.6297L106.261 12.3459Z" fill="var(--fill-0, #0069DC)"/>
<path d="M139.46 15.0466V12.3459H163.293V15.0466H152.877V45.2683H149.876V15.0466H139.46Z" fill="#80BBFF"/>
<path d="M194.635 28.8071C194.635 32.2365 194.025 35.2212 192.805 37.7611C191.585 40.2903 189.906 42.2515 187.766 43.6447C185.636 45.0272 183.186 45.7184 180.415 45.7184C177.644 45.7184 175.188 45.0272 173.048 43.6447C170.919 42.2515 169.245 40.2903 168.025 37.7611C166.816 35.2212 166.211 32.2365 166.211 28.8071C166.211 25.3777 166.816 22.3984 168.025 19.8692C169.245 17.3293 170.924 15.3681 173.064 13.9856C175.204 12.5924 177.654 11.8958 180.415 11.8958C183.186 11.8958 185.636 12.5924 187.766 13.9856C189.906 15.3681 191.585 17.3293 192.805 19.8692C194.025 22.3984 194.635 25.3777 194.635 28.8071ZM191.714 28.8071C191.714 25.8599 191.222 23.3361 190.237 21.2356C189.253 19.1244 187.91 17.5115 186.209 16.3969C184.508 15.2823 182.576 14.7251 180.415 14.7251C178.264 14.7251 176.338 15.2823 174.637 16.3969C172.936 17.5115 171.588 19.119 170.593 21.2195C169.608 23.32 169.116 25.8492 169.116 28.8071C169.116 31.7542 169.608 34.2781 170.593 36.3786C171.577 38.4791 172.92 40.092 174.621 41.2173C176.322 42.3319 178.254 42.8891 180.415 42.8891C182.576 42.8891 184.508 42.3319 186.209 41.2173C187.921 40.1027 189.269 38.4952 190.253 36.3947C191.238 34.2834 191.725 31.7542 191.714 28.8071Z" fill="#80BBFF"/>
<path d="M227.846 28.8071C227.846 32.2365 227.236 35.2212 226.016 37.7611C224.797 40.2903 223.117 42.2515 220.977 43.6447C218.848 45.0272 216.397 45.7184 213.626 45.7184C210.855 45.7184 208.399 45.0272 206.259 43.6447C204.13 42.2515 202.456 40.2903 201.236 37.7611C200.027 35.2212 199.422 32.2365 199.422 28.8071C199.422 25.3777 200.027 22.3984 201.236 19.8692C202.456 17.3293 204.136 15.3681 206.276 13.9856C208.415 12.5924 210.866 11.8958 213.626 11.8958C216.397 11.8958 218.848 12.5924 220.977 13.9856C223.117 15.3681 224.797 17.3293 226.016 19.8692C227.236 22.3984 227.846 25.3777 227.846 28.8071ZM224.925 28.8071C224.925 25.8599 224.433 23.3361 223.449 21.2356C222.464 19.1244 221.121 17.5115 219.42 16.3969C217.719 15.2823 215.788 14.7251 213.626 14.7251C211.476 14.7251 209.55 15.2823 207.848 16.3969C206.147 17.5115 204.799 19.119 203.804 21.2195C202.82 23.32 202.327 25.8492 202.327 28.8071C202.327 31.7542 202.82 34.2781 203.804 36.3786C204.788 38.4791 206.131 40.092 207.832 41.2173C209.534 42.3319 211.465 42.8891 213.626 42.8891C215.788 42.8891 217.719 42.3319 219.42 41.2173C221.132 40.1027 222.48 38.4952 223.465 36.3947C224.449 34.2834 224.936 31.7542 224.925 28.8071Z" fill="#80BBFF"/>
<path d="M230.752 15.0466V12.3459H254.585V15.0466H244.169V45.2683H241.168V15.0466H230.752Z" fill="#80BBFF"/>
<path d="M260.348 45.2683V12.3459H263.349V27.4407H281.999V12.3459H285V45.2683H281.999V30.1414H263.349V45.2683H260.348Z" fill="#80BBFF"/>
</g>
<defs>
<linearGradient id="paint0_linear_651_31178" x1="-0.00154578" y1="28.903" x2="40.5136" y2="-70.6225" gradientUnits="userSpaceOnUse">
<stop stop-color="#0052B0"/>
<stop offset="1" stop-color="#0069DC"/>
</linearGradient>
</defs>
</svg>
